<svg width="239" height="346" viewBox="0 0 239 346" fill="none" xmlns="http://www.w3.org/2000/svg">
<path d="M194.188 0H44.9619C20.315 0 0.149378 19.4544 0.149378 43.232L0 317.179C0 327.843 6.12437 337.642 15.8337 342.541C20.1656 344.847 25.095 346 29.875 346C35.7006 346 41.3769 344.415 46.4556 341.1L119.5 294.122L192.544 341.1C197.623 344.415 203.299 346 209.125 346C213.905 346 218.834 344.847 223.166 342.541C232.876 337.642 239 327.843 239 317.179V43.232C239 19.4544 218.834 0 194.188 0V0ZM209.125 317.179C209.125 317.179 127.716 264.868 127.566 264.868C125.176 263.427 122.488 262.562 119.5 262.562C116.662 262.562 113.973 263.283 111.732 264.724C111.583 264.724 29.875 317.179 29.875 317.179L30.0244 43.232C30.0244 35.4502 36.8956 28.8213 44.9619 28.8213H194.188C202.254 28.8213 209.125 35.4502 209.125 43.232V317.179Z" fill="#313969"/>
</svg>
