<svg width="489" height="502" viewBox="0 0 489 502" fill="none" xmlns="http://www.w3.org/2000/svg">
<path d="M237.672 465.346C363.412 465.346 465.345 363.413 465.345 237.673C465.345 111.933 363.412 10 237.672 10C111.932 10 9.99902 111.933 9.99902 237.673C9.99902 363.413 111.932 465.346 237.672 465.346Z" fill="#0D1C33"/>
<path d="M237.672 139.924C260.596 139.924 279.179 121.341 279.179 98.417C279.179 75.4933 260.596 56.91 237.672 56.91C214.748 56.91 196.165 75.4933 196.165 98.417C196.165 121.341 214.748 139.924 237.672 139.924Z" fill="#0D1C33"/>
<path d="M237.672 149.924C209.271 149.924 186.165 126.818 186.165 98.417C186.165 70.016 209.271 46.91 237.672 46.91C266.073 46.91 289.179 70.016 289.179 98.417C289.181 126.818 266.075 149.924 237.672 149.924ZM237.672 66.91C220.299 66.91 206.165 81.044 206.165 98.417C206.165 115.79 220.299 129.924 237.672 129.924C255.045 129.924 269.179 115.79 269.179 98.417C269.179 81.044 255.046 66.91 237.672 66.91Z" fill="#313969"/>
<path d="M117.073 209.552C139.997 209.552 158.58 190.969 158.58 168.045C158.58 145.121 139.997 126.538 117.073 126.538C94.1493 126.538 75.566 145.121 75.566 168.045C75.566 190.969 94.1493 209.552 117.073 209.552Z" fill="#0D1C33"/>
<path d="M116.989 219.574C108.063 219.574 99.256 217.234 91.319 212.651C79.404 205.772 70.881 194.665 67.32 181.376C63.759 168.086 65.587 154.206 72.466 142.291C79.345 130.376 90.452 121.853 103.742 118.292C117.03 114.732 130.911 116.559 142.826 123.438C154.741 130.317 163.264 141.424 166.825 154.713C170.386 168.002 168.558 181.882 161.679 193.797C154.8 205.712 143.693 214.235 130.404 217.796C125.967 218.986 121.463 219.574 116.989 219.574ZM117.124 136.524C114.387 136.524 111.633 136.884 108.918 137.611C100.789 139.789 93.995 145.003 89.787 152.291C85.579 159.58 84.461 168.07 86.64 176.199C88.818 184.328 94.032 191.123 101.32 195.331C108.608 199.539 117.099 200.657 125.228 198.478C133.357 196.3 140.152 191.086 144.36 183.798C148.568 176.51 149.686 168.019 147.507 159.89C145.329 151.761 140.115 144.967 132.827 140.759C127.972 137.956 122.584 136.524 117.124 136.524Z" fill="#313969"/>
<path d="M117.073 348.808C139.997 348.808 158.58 330.225 158.58 307.301C158.58 284.377 139.997 265.794 117.073 265.794C94.1494 265.794 75.566 284.377 75.566 307.301C75.566 330.225 94.1494 348.808 117.073 348.808Z" fill="#0D1C33"/>
<path d="M117.157 358.83C112.682 358.83 108.18 358.242 103.742 357.053C90.452 353.492 79.345 344.97 72.466 333.054C58.265 308.458 66.723 276.894 91.319 262.694C103.234 255.816 117.113 253.987 130.404 257.548C143.693 261.109 154.8 269.632 161.679 281.547C168.558 293.462 170.386 307.342 166.825 320.631C163.264 333.92 154.742 345.027 142.826 351.906C134.891 356.489 126.082 358.83 117.157 358.83ZM117.022 275.78C111.562 275.78 106.174 277.212 101.319 280.015C86.274 288.702 81.1 308.009 89.786 323.055C93.994 330.343 100.788 335.556 108.917 337.735C117.048 339.914 125.538 338.796 132.826 334.588C140.115 330.38 145.328 323.586 147.506 315.457C149.684 307.328 148.567 298.837 144.359 291.549C140.151 284.26 133.357 279.047 125.227 276.869C122.514 276.14 119.758 275.78 117.022 275.78Z" fill="#313969"/>
<path d="M237.672 418.436C260.596 418.436 279.179 399.853 279.179 376.929C279.179 354.005 260.596 335.422 237.672 335.422C214.748 335.422 196.165 354.005 196.165 376.929C196.165 399.853 214.748 418.436 237.672 418.436Z" fill="#0D1C33"/>
<path d="M237.672 428.436C209.271 428.436 186.165 405.33 186.165 376.929C186.165 348.528 209.271 325.422 237.672 325.422C266.073 325.422 289.179 348.528 289.179 376.929C289.179 405.33 266.075 428.436 237.672 428.436ZM237.672 345.421C220.299 345.421 206.165 359.555 206.165 376.928C206.165 394.301 220.299 408.435 237.672 408.435C255.045 408.435 269.179 394.301 269.179 376.928C269.179 359.555 255.046 345.421 237.672 345.421Z" fill="#313969"/>
<path d="M358.273 348.808C381.197 348.808 399.78 330.225 399.78 307.301C399.78 284.377 381.197 265.794 358.273 265.794C335.349 265.794 316.766 284.377 316.766 307.301C316.766 330.225 335.349 348.808 358.273 348.808Z" fill="#0D1C33"/>
<path d="M358.189 358.83C349.264 358.83 340.456 356.49 332.519 351.907C320.604 345.028 312.081 333.921 308.52 320.632C304.959 307.343 306.787 293.463 313.666 281.548C320.545 269.633 331.652 261.11 344.941 257.549C358.231 253.989 372.11 255.816 384.026 262.695C395.941 269.574 404.464 280.681 408.025 293.97C411.586 307.26 409.758 321.14 402.879 333.055C396 344.97 384.893 353.493 371.604 357.054C367.166 358.242 362.663 358.83 358.189 358.83ZM358.324 275.78C355.587 275.78 352.833 276.14 350.118 276.867C341.989 279.045 335.194 284.259 330.986 291.547C326.778 298.835 325.66 307.326 327.839 315.455C330.017 323.584 335.231 330.378 342.519 334.586C349.807 338.794 358.298 339.913 366.427 337.733C374.556 335.555 381.35 330.341 385.558 323.053C389.766 315.764 390.884 307.274 388.706 299.144C386.528 291.015 381.314 284.221 374.026 280.013C369.172 277.212 363.783 275.78 358.324 275.78Z" fill="#313969"/>
<path d="M358.273 209.552C381.197 209.552 399.78 190.969 399.78 168.045C399.78 145.121 381.197 126.538 358.273 126.538C335.349 126.538 316.766 145.121 316.766 168.045C316.766 190.969 335.349 209.552 358.273 209.552Z" fill="#0D1C33"/>
<path d="M358.357 219.574C353.883 219.574 349.38 218.986 344.942 217.797C331.653 214.236 320.546 205.714 313.667 193.798C306.788 181.882 304.96 168.003 308.521 154.714C312.082 141.425 320.604 130.318 332.52 123.439C344.436 116.56 358.315 114.732 371.604 118.293C384.893 121.854 396 130.376 402.879 142.292C409.758 154.207 411.586 168.087 408.025 181.377C404.464 194.666 395.942 205.773 384.026 212.652C376.09 217.233 367.282 219.574 358.357 219.574ZM358.222 136.524C352.762 136.524 347.374 137.956 342.519 140.759C335.23 144.967 330.017 151.761 327.839 159.89C325.661 168.019 326.778 176.51 330.986 183.798C335.194 191.087 341.988 196.3 350.118 198.478C358.248 200.657 366.739 199.538 374.026 195.331C381.315 191.123 386.528 184.329 388.706 176.199C390.884 168.07 389.766 159.579 385.558 152.291C381.35 145.003 374.556 139.79 366.427 137.611C363.713 136.884 360.958 136.524 358.222 136.524Z" fill="#313969"/>
<path d="M237.672 264.327C252.393 264.327 264.326 252.394 264.326 237.673C264.326 222.952 252.393 211.019 237.672 211.019C222.951 211.019 211.018 222.952 211.018 237.673C211.018 252.394 222.951 264.327 237.672 264.327Z" fill="#0D1C33"/>
<path d="M237.672 274.327C217.461 274.327 201.018 257.884 201.018 237.673C201.018 217.462 217.461 201.019 237.672 201.019C257.883 201.019 274.326 217.462 274.326 237.673C274.326 257.884 257.885 274.327 237.672 274.327ZM237.672 221.019C228.489 221.019 221.018 228.49 221.018 237.673C221.018 246.856 228.489 254.327 237.672 254.327C246.855 254.327 254.326 246.856 254.326 237.673C254.326 228.49 246.857 221.019 237.672 221.019Z" fill="#313969"/>
<path d="M434.99 430.913H376.113C386.55 423.402 396.462 415.005 405.734 405.733C450.625 360.842 475.347 301.158 475.347 237.673C475.347 174.188 450.625 114.504 405.734 69.613C360.843 24.722 301.158 0 237.672 0C174.186 0 114.503 24.722 69.612 69.613C24.721 114.504 0 174.188 0 237.673C0 301.158 24.722 360.842 69.613 405.733C114.504 450.624 174.188 475.346 237.673 475.346C274.783 475.346 310.589 466.885 342.906 450.899C342.998 450.902 343.087 450.913 343.179 450.913H434.989C453.562 450.913 468.673 466.023 468.673 484.597V492C468.673 497.523 473.15 502 478.673 502C484.196 502 488.673 497.523 488.673 492V484.596C488.673 454.995 464.591 430.913 434.99 430.913ZM20 237.673C20 117.647 117.647 20 237.672 20C357.697 20 455.345 117.647 455.345 237.673C455.345 357.699 357.698 455.346 237.672 455.346C117.646 455.346 20 357.698 20 237.673Z" fill="#313969"/>
<path d="M176.019 247.673C170.496 247.673 166.019 243.196 166.019 237.673C166.019 213.195 178.319 190.66 198.922 177.392C203.564 174.401 209.753 175.742 212.743 180.385C215.733 185.028 214.393 191.216 209.75 194.207C194.89 203.776 186.019 220.025 186.019 237.673C186.019 243.196 181.541 247.673 176.019 247.673Z" fill="#313969"/>
<path d="M259.515 190.003C258.337 190.003 257.14 189.793 255.973 189.351C250.139 187.14 243.982 186.018 237.673 186.018C232.15 186.018 227.673 181.541 227.673 176.018C227.673 170.495 232.15 166.018 237.673 166.018C246.412 166.018 254.954 167.576 263.061 170.648C268.226 172.606 270.825 178.378 268.868 183.543C267.353 187.542 263.551 190.003 259.515 190.003Z" fill="#313969"/>
</svg>
