<svg width="487" height="487" viewBox="0 0 487 487" fill="none" xmlns="http://www.w3.org/2000/svg">
<path d="M444.983 478.569H293.856C275.309 478.569 260.272 463.532 260.272 444.985V41.983C260.272 23.436 275.309 8.39899 293.856 8.39899H444.982C463.529 8.39899 478.566 23.436 478.566 41.983V444.986C478.566 463.532 463.529 478.569 444.983 478.569Z" fill="#0D1C33"/>
<path d="M193.106 478.569H41.98C23.433 478.569 8.396 463.532 8.396 444.985V41.983C8.396 23.436 23.433 8.39899 41.98 8.39899H193.106C211.653 8.39899 226.69 23.436 226.69 41.983V444.986C226.689 463.532 211.652 478.569 193.106 478.569Z" fill="#0D1C33"/>
<path d="M419.795 478.569H67.167C48.62 478.569 33.583 463.532 33.583 444.985V41.983C33.583 23.436 48.62 8.39899 67.167 8.39899H419.795C438.342 8.39899 453.379 23.436 453.379 41.983V444.986C453.378 463.532 438.341 478.569 419.795 478.569Z" fill="#0D1C33"/>
<path d="M176.314 142.734C176.314 161.281 161.277 176.318 142.73 176.318C124.183 176.318 109.146 161.281 109.146 142.734C109.146 124.187 124.183 109.15 142.73 109.15C161.277 109.15 176.314 124.187 176.314 142.734Z" fill="#0D1C33"/>
<path d="M151.126 142.734C151.126 161.281 141.731 176.318 130.136 176.318C118.541 176.318 109.146 161.281 109.146 142.734C109.146 124.187 118.541 109.15 130.136 109.15C141.731 109.15 151.126 124.187 151.126 142.734Z" fill="#0D1C33"/>
<path d="M377.815 142.734C377.815 161.281 362.778 176.318 344.231 176.318C325.684 176.318 310.647 161.281 310.647 142.734C310.647 124.187 325.684 109.15 344.231 109.15C362.778 109.15 377.815 124.187 377.815 142.734Z" fill="#0D1C33"/>
<path d="M352.628 142.734C352.628 161.281 343.233 176.318 331.638 176.318C320.043 176.318 310.648 161.281 310.648 142.734C310.648 124.187 320.043 109.15 331.638 109.15C343.233 109.15 352.628 124.187 352.628 142.734Z" fill="#0D1C33"/>
<path d="M377.815 243.484C377.815 262.031 362.778 277.068 344.231 277.068C325.684 277.068 310.647 262.031 310.647 243.484C310.647 224.937 325.684 209.9 344.231 209.9C362.778 209.901 377.815 224.938 377.815 243.484Z" fill="#0D1C33"/>
<path d="M352.628 243.484C352.628 262.031 343.233 277.068 331.638 277.068C320.043 277.068 310.648 262.031 310.648 243.484C310.648 224.937 320.043 209.9 331.638 209.9C343.233 209.901 352.628 224.938 352.628 243.484Z" fill="#0D1C33"/>
<path d="M377.815 344.235C377.815 362.782 362.778 377.819 344.231 377.819C325.684 377.819 310.647 362.782 310.647 344.235C310.647 325.688 325.684 310.651 344.231 310.651C362.778 310.651 377.815 325.689 377.815 344.235Z" fill="#0D1C33"/>
<path d="M352.628 344.235C352.628 362.782 343.233 377.819 331.638 377.819C320.043 377.819 310.648 362.782 310.648 344.235C310.648 325.688 320.043 310.651 331.638 310.651C343.233 310.651 352.628 325.689 352.628 344.235Z" fill="#0D1C33"/>
<path d="M176.314 344.235C176.314 362.782 161.277 377.819 142.73 377.819C124.183 377.819 109.146 362.782 109.146 344.235C109.146 325.688 124.183 310.651 142.73 310.651C161.277 310.651 176.314 325.689 176.314 344.235Z" fill="#0D1C33"/>
<path d="M151.126 344.235C151.126 362.782 141.731 377.819 130.136 377.819C118.541 377.819 109.146 362.782 109.146 344.235C109.146 325.688 118.541 310.651 130.136 310.651C141.731 310.651 151.126 325.689 151.126 344.235Z" fill="#0D1C33"/>
<path d="M176.314 243.484C176.314 262.031 161.277 277.068 142.73 277.068C124.183 277.068 109.146 262.031 109.146 243.484C109.146 224.937 124.183 209.9 142.73 209.9C161.277 209.9 176.314 224.938 176.314 243.484Z" fill="#0D1C33"/>
<path d="M151.126 243.484C151.126 262.031 141.731 277.068 130.136 277.068C118.541 277.068 109.146 262.031 109.146 243.484C109.146 224.937 118.541 209.9 130.136 209.9C141.731 209.9 151.126 224.938 151.126 243.484Z" fill="#0D1C33"/>
<path d="M444.983 486.97H41.98C18.834 486.97 0.000999451 468.137 0.000999451 444.991V142.738C0.000999451 138.101 3.76 134.342 8.397 134.342C13.034 134.342 16.793 138.101 16.793 142.738V444.99C16.793 458.879 28.091 470.178 41.981 470.178H444.984C458.873 470.178 470.172 458.88 470.172 444.99V411.406C470.172 406.765 473.927 403.01 478.568 403.01C483.209 403.01 486.964 406.765 486.964 411.406V444.99C486.962 468.137 468.129 486.97 444.983 486.97Z" fill="#313969"/>
<path d="M478.566 352.628C473.925 352.628 470.17 348.873 470.17 344.232V41.979C470.17 28.09 458.872 16.791 444.982 16.791H41.98C28.091 16.791 16.792 28.089 16.792 41.979V75.563C16.792 80.2 13.033 83.959 8.396 83.959C3.759 83.959 0 80.2 0 75.563V41.979C0 18.833 18.833 0 41.98 0H444.983C468.129 0 486.962 18.833 486.962 41.979V344.231C486.962 348.872 483.207 352.628 478.566 352.628Z" fill="#313969"/>
<path d="M16.792 109.15C16.792 113.785 13.031 117.546 8.396 117.546C3.761 117.546 0 113.785 0 109.15C0 104.515 3.761 100.754 8.396 100.754C13.031 100.754 16.792 104.515 16.792 109.15Z" fill="#313969"/>
<path d="M486.962 377.819C486.962 382.454 483.201 386.215 478.566 386.215C473.931 386.215 470.17 382.454 470.17 377.819C470.17 373.184 473.931 369.423 478.566 369.423C483.201 369.423 486.962 373.184 486.962 377.819Z" fill="#313969"/>
<path d="M344.232 285.46C321.086 285.46 302.253 266.627 302.253 243.485C302.253 220.339 321.086 201.506 344.232 201.506C367.378 201.506 386.211 220.339 386.211 243.485C386.211 266.627 367.378 285.46 344.232 285.46ZM344.232 218.297C330.343 218.297 319.044 229.595 319.044 243.485C319.044 257.37 330.342 268.669 344.232 268.669C358.121 268.669 369.42 257.371 369.42 243.485C369.42 229.596 358.121 218.297 344.232 218.297Z" fill="#313969"/>
<path d="M142.73 285.46C119.584 285.46 100.751 266.627 100.751 243.485C100.751 220.339 119.584 201.506 142.73 201.506C165.876 201.506 184.709 220.339 184.709 243.485C184.71 266.627 165.876 285.46 142.73 285.46ZM142.73 218.297C128.841 218.297 117.542 229.595 117.542 243.485C117.542 257.37 128.84 268.669 142.73 268.669C156.619 268.669 167.918 257.371 167.918 243.485C167.918 229.596 156.62 218.297 142.73 218.297Z" fill="#313969"/>
<path d="M142.73 386.211C119.584 386.211 100.751 367.378 100.751 344.232C100.751 321.086 119.584 302.253 142.73 302.253C165.876 302.253 184.709 321.086 184.709 344.232C184.71 367.378 165.876 386.211 142.73 386.211ZM142.73 319.044C128.841 319.044 117.542 330.342 117.542 344.232C117.542 358.122 128.84 369.42 142.73 369.42C156.619 369.42 167.918 358.122 167.918 344.232C167.918 330.342 156.62 319.044 142.73 319.044Z" fill="#313969"/>
<path d="M142.73 184.714C119.584 184.714 100.751 165.881 100.751 142.735C100.751 119.589 119.584 100.756 142.73 100.756C165.876 100.756 184.709 119.589 184.709 142.735C184.709 165.881 165.876 184.714 142.73 184.714ZM142.73 117.547C128.841 117.547 117.542 128.845 117.542 142.735C117.542 156.625 128.84 167.923 142.73 167.923C156.619 167.923 167.918 156.625 167.918 142.735C167.918 128.845 156.62 117.547 142.73 117.547Z" fill="#313969"/>
<path d="M344.232 386.211C321.086 386.211 302.253 367.378 302.253 344.232C302.253 321.086 321.086 302.253 344.232 302.253C367.378 302.253 386.211 321.086 386.211 344.232C386.211 367.378 367.378 386.211 344.232 386.211ZM344.232 319.044C330.343 319.044 319.044 330.342 319.044 344.232C319.044 358.122 330.342 369.42 344.232 369.42C358.121 369.42 369.42 358.122 369.42 344.232C369.42 330.342 358.121 319.044 344.232 319.044Z" fill="#313969"/>
<path d="M344.232 184.714C321.086 184.714 302.253 165.881 302.253 142.735C302.253 119.589 321.086 100.756 344.232 100.756C367.378 100.756 386.211 119.589 386.211 142.735C386.211 165.881 367.378 184.714 344.232 184.714ZM344.232 117.547C330.343 117.547 319.044 128.845 319.044 142.735C319.044 156.625 330.342 167.923 344.232 167.923C358.121 167.923 369.42 156.625 369.42 142.735C369.42 128.845 358.121 117.547 344.232 117.547Z" fill="#313969"/>
<path d="M361.024 444.982H62.965C51.392 444.982 41.975 435.569 41.975 423.992V167.922C41.975 163.285 45.734 159.526 50.371 159.526C55.008 159.526 58.767 163.285 58.767 167.922V423.993C58.767 426.305 60.649 428.191 62.965 428.191H361.023C365.664 428.191 369.419 431.946 369.419 436.587C369.419 441.228 365.664 444.982 361.024 444.982Z" fill="#313969"/>
<path d="M423.993 444.991H394.607C389.966 444.991 386.211 441.236 386.211 436.595C386.211 431.954 389.966 428.199 394.607 428.199H423.993C426.305 428.199 428.191 426.313 428.191 424.001V62.973C428.191 60.657 426.305 58.775 423.993 58.775H62.969C60.653 58.775 58.771 60.657 58.771 62.973V100.755C58.771 105.392 55.012 109.151 50.375 109.151C45.738 109.151 41.979 105.392 41.979 100.755V62.973C41.979 51.4 51.396 41.983 62.969 41.983H423.992C435.569 41.983 444.982 51.4 444.982 62.973V424.001C444.983 435.578 435.57 444.991 423.993 444.991Z" fill="#313969"/>
<path d="M58.771 134.338C58.771 129.703 55.01 125.942 50.375 125.942C45.74 125.942 41.979 129.703 41.979 134.338C41.979 138.973 45.74 142.734 50.375 142.734C55.01 142.734 58.771 138.972 58.771 134.338Z" fill="#313969"/>
</svg>
