<svg width="496" height="263" viewBox="0 0 496 263" fill="none" xmlns="http://www.w3.org/2000/svg">
<path d="M492.542 122.202C437.922 61.3975 341.142 0.0257841 247.952 0C143.094 0 74.5042 48.721 3.75218 121.874C-0.711997 126.502 -1.26774 134.195 2.48852 139.588C6.00825 144.625 90.5051 263 247.998 263C347.151 263 468.567 181.325 494.016 138.8C497.147 133.577 496.51 126.635 492.542 122.202ZM248 236.698C127.117 236.698 51.0983 159.364 28.3176 132.486C105.198 55.283 165.629 26.2998 248 26.2998C340.635 26.3256 426.408 89.6698 468.19 132.617C436.966 169.332 332.864 236.698 248 236.698Z" fill="#313969"/>
<path d="M165.333 131.527C165.333 182.246 202.427 223.576 248 223.576C293.598 223.576 330.691 182.272 330.691 131.514C330.691 80.7559 293.596 39.4516 248 39.4516C202.427 39.4497 165.333 80.7541 165.333 131.527ZM307.071 131.514C307.071 167.755 280.571 197.263 248 197.263C215.441 197.263 188.952 167.755 188.952 131.514C188.952 95.2466 215.441 65.7514 248 65.7514C280.571 65.7495 307.071 95.2595 307.071 131.514Z" fill="#313969"/>
<path d="M200.762 131.527C200.762 138.798 206.041 144.677 212.571 144.677C219.101 144.677 224.381 138.798 224.381 131.514C224.381 116.983 234.962 105.201 248 105.201C254.53 105.201 259.81 99.3223 259.81 92.0512C259.81 84.7801 254.53 78.9013 248 78.9013C221.948 78.8995 200.762 102.505 200.762 131.527Z" fill="#313969"/>
</svg>
