<svg width="424" height="424" viewBox="0 0 424 424" fill="none" xmlns="http://www.w3.org/2000/svg">
<path d="M394.432 368.692L277.877 251.984C274.131 256.732 270.076 261.316 265.697 265.696C261.304 270.088 256.691 274.18 251.888 277.972L368.666 394.406C368.757 394.487 368.845 394.57 368.935 394.655C376.021 401.445 387.435 401.322 394.376 394.379C401.317 387.437 401.44 376.022 394.651 368.93C394.579 368.851 394.504 368.772 394.432 368.692Z" fill="#0D1C33"/>
<path d="M248.727 248.725C300.051 197.398 300.051 113.883 248.727 62.556C223.862 37.692 190.804 24 155.642 24C120.479 24 87.421 37.692 62.559 62.556C37.694 87.42 24 120.478 24 155.64C24 190.803 37.694 223.861 62.558 248.725C87.42 273.589 120.479 287.282 155.641 287.282C190.805 287.282 223.862 273.589 248.727 248.725ZM42.645 155.64C42.645 125.457 54.399 97.081 75.742 75.738C97.082 54.396 125.457 42.643 155.641 42.643C185.823 42.643 214.2 54.396 235.542 75.738C279.6 119.797 279.6 191.484 235.542 235.541C214.201 256.884 185.825 268.638 155.641 268.638C125.458 268.638 97.082 256.884 75.74 235.54C54.399 214.199 42.645 185.823 42.645 155.64Z" fill="#0D1C33"/>
<path d="M235.542 235.542C279.6 191.484 279.6 119.797 235.542 75.739C214.2 54.397 185.823 42.644 155.641 42.644C125.457 42.644 97.082 54.397 75.742 75.739C54.399 97.082 42.645 125.458 42.645 155.641C42.645 185.824 54.399 214.2 75.74 235.541C97.082 256.885 125.458 268.639 155.641 268.639C185.825 268.638 214.201 256.884 235.542 235.542ZM66.645 155.64C66.645 131.869 75.903 109.519 92.712 92.708C109.52 75.899 131.868 66.643 155.641 66.643C179.412 66.643 201.762 75.9 218.572 92.709C253.271 127.409 253.271 183.87 218.572 218.571C201.762 235.381 179.413 244.638 155.641 244.638C131.87 244.638 109.521 235.381 92.711 218.571C75.903 201.761 66.645 179.412 66.645 155.64Z" fill="#90CEA1"/>
<path d="M187.022 119.752C189.365 122.096 192.437 123.267 195.508 123.267C198.578 123.267 201.651 122.096 203.992 119.752C208.68 115.066 208.68 107.468 203.994 102.781C191.078 89.865 173.906 82.751 155.64 82.751C155.639 82.751 155.64 82.751 155.639 82.751C137.374 82.751 120.202 89.864 107.288 102.778C102.601 107.465 102.601 115.062 107.288 119.749C111.975 124.435 119.572 124.435 124.259 119.749C132.641 111.367 143.785 106.751 155.641 106.751C167.496 106.752 178.642 111.369 187.022 119.752Z" fill="#90CEA1"/>
<path d="M413.942 354.526V59.944C413.942 53.317 408.569 47.944 401.942 47.944H267.997C267.239 47.152 266.475 46.364 265.698 45.586C236.299 16.188 197.214 0 155.642 0C114.067 0 74.983 16.188 45.588 45.585C16.19 74.981 0 114.066 0 155.64C0 197.214 16.19 236.299 45.587 265.696C46.364 266.473 47.15 267.236 47.941 267.994V401.943C47.941 408.57 53.314 413.943 59.941 413.943H354.53C362.292 420.395 371.897 423.616 381.503 423.615C392.345 423.614 403.183 419.516 411.349 411.348C426.749 395.948 427.674 371.053 413.942 354.526ZM394.377 394.378C387.436 401.321 376.022 401.444 368.936 394.654C368.846 394.569 368.758 394.487 368.667 394.405L251.889 277.972C256.692 274.179 261.305 270.088 265.698 265.696C270.077 261.316 274.132 256.732 277.878 251.984L394.433 368.693C394.505 368.773 394.579 368.852 394.654 368.929C401.442 376.021 401.319 387.436 394.377 394.378ZM389.942 71.944V330.233L291.481 231.642C319.235 181.993 317.692 120.257 286.87 71.944H389.942V71.944ZM24 155.64C24 120.478 37.694 87.42 62.558 62.556C87.421 37.692 120.478 24 155.642 24C190.804 24 223.862 37.692 248.727 62.556C300.051 113.883 300.051 197.399 248.727 248.725C223.862 273.589 190.805 287.282 155.642 287.282C120.48 287.282 87.421 273.589 62.559 248.725C37.694 223.861 24 190.803 24 155.64ZM71.942 389.942V286.916C96.712 302.778 125.521 311.282 155.641 311.282C182.655 311.282 208.616 304.44 231.553 291.586L330.2 389.942H71.942V389.942Z" fill="#90CEA1"/>
</svg>
