<svg width="424" height="424" viewBox="0 0 424 424" fill="none" xmlns="http://www.w3.org/2000/svg">
<path d="M394.434 368.692L277.879 251.984C274.133 256.732 270.078 261.316 265.699 265.696C261.306 270.088 256.693 274.18 251.89 277.972L368.668 394.406C368.759 394.487 368.847 394.57 368.937 394.655C376.023 401.445 387.437 401.322 394.378 394.379C401.319 387.437 401.442 376.022 394.653 368.93C394.581 368.851 394.506 368.772 394.434 368.692Z" fill="#0D1C33"/>
<path d="M248.729 248.725C300.053 197.398 300.053 113.883 248.729 62.556C223.864 37.692 190.806 24 155.644 24C120.481 24 87.423 37.692 62.561 62.556C37.696 87.42 24.002 120.478 24.002 155.64C24.002 190.803 37.696 223.861 62.56 248.725C87.422 273.589 120.481 287.282 155.643 287.282C190.807 287.282 223.864 273.589 248.729 248.725ZM42.647 155.64C42.647 125.457 54.401 97.081 75.744 75.738C97.084 54.396 125.459 42.643 155.643 42.643C185.825 42.643 214.202 54.396 235.544 75.738C279.602 119.797 279.602 191.484 235.544 235.541C214.203 256.884 185.827 268.638 155.643 268.638C125.46 268.638 97.084 256.884 75.742 235.54C54.401 214.199 42.647 185.823 42.647 155.64Z" fill="#0D1C33"/>
<path d="M235.544 235.542C279.602 191.484 279.602 119.797 235.544 75.739C214.202 54.397 185.825 42.644 155.643 42.644C125.459 42.644 97.084 54.397 75.744 75.739C54.401 97.082 42.647 125.458 42.647 155.641C42.647 185.824 54.401 214.2 75.742 235.541C97.084 256.885 125.46 268.639 155.643 268.639C185.827 268.638 214.203 256.884 235.544 235.542ZM66.647 155.64C66.647 131.869 75.905 109.519 92.714 92.708C109.522 75.899 131.87 66.643 155.643 66.643C179.414 66.643 201.764 75.9 218.574 92.709C253.273 127.409 253.273 183.87 218.574 218.571C201.764 235.381 179.415 244.638 155.643 244.638C131.872 244.638 109.523 235.381 92.713 218.571C75.905 201.761 66.647 179.412 66.647 155.64Z" fill="#313969"/>
<path d="M187.024 119.752C189.367 122.096 192.439 123.267 195.51 123.267C198.58 123.267 201.653 122.096 203.994 119.752C208.682 115.066 208.682 107.468 203.996 102.781C191.08 89.865 173.908 82.751 155.642 82.751C155.641 82.751 155.642 82.751 155.641 82.751C137.376 82.751 120.204 89.864 107.29 102.778C102.603 107.465 102.603 115.062 107.29 119.749C111.977 124.435 119.574 124.435 124.261 119.749C132.643 111.367 143.787 106.751 155.643 106.751C167.498 106.752 178.644 111.369 187.024 119.752Z" fill="#313969"/>
<path d="M413.944 354.526V59.944C413.944 53.317 408.571 47.944 401.944 47.944H267.999C267.241 47.152 266.477 46.364 265.7 45.586C236.301 16.188 197.216 0 155.644 0C114.069 0 74.985 16.188 45.59 45.585C16.192 74.981 0.00201416 114.066 0.00201416 155.64C0.00201416 197.214 16.192 236.299 45.589 265.696C46.366 266.473 47.152 267.236 47.943 267.994V401.943C47.943 408.57 53.316 413.943 59.943 413.943H354.532C362.294 420.395 371.899 423.616 381.505 423.615C392.347 423.614 403.185 419.516 411.351 411.348C426.751 395.948 427.676 371.053 413.944 354.526ZM394.379 394.378C387.438 401.321 376.024 401.444 368.938 394.654C368.848 394.569 368.76 394.487 368.669 394.405L251.891 277.972C256.694 274.179 261.307 270.088 265.7 265.696C270.079 261.316 274.134 256.732 277.88 251.984L394.435 368.693C394.507 368.773 394.581 368.852 394.656 368.929C401.444 376.021 401.321 387.436 394.379 394.378ZM389.944 71.944V330.233L291.483 231.642C319.237 181.993 317.694 120.257 286.872 71.944H389.944V71.944ZM24.002 155.64C24.002 120.478 37.696 87.42 62.56 62.556C87.423 37.692 120.48 24 155.644 24C190.806 24 223.864 37.692 248.729 62.556C300.053 113.883 300.053 197.399 248.729 248.725C223.864 273.589 190.807 287.282 155.644 287.282C120.482 287.282 87.423 273.589 62.561 248.725C37.696 223.861 24.002 190.803 24.002 155.64ZM71.944 389.942V286.916C96.714 302.778 125.523 311.282 155.643 311.282C182.657 311.282 208.618 304.44 231.555 291.586L330.202 389.942H71.944V389.942Z" fill="#313969"/>
</svg>
