<svg width="315" height="302" viewBox="0 0 315 302" fill="none" xmlns="http://www.w3.org/2000/svg">
<path d="M314.684 114.704C313.918 112.341 311.887 110.621 309.438 110.269L208.405 95.6244L163.321 3.63989C162.231 1.41099 159.973 0 157.501 0C155.028 0 152.77 1.41099 151.68 3.63663L106.593 95.6212L5.5634 110.265C3.11714 110.617 1.08292 112.341 0.317251 114.7C-0.445176 117.063 0.19072 119.657 1.96539 121.387L75.1292 192.878L57.7783 293.909C57.3565 296.353 58.359 298.829 60.3576 300.286C62.3626 301.749 65.01 301.941 67.1967 300.781L157.501 252.984L247.804 300.781C248.755 301.283 249.79 301.531 250.831 301.531C252.178 301.531 253.514 301.11 254.647 300.283C256.645 298.826 257.651 296.349 257.226 293.905L239.875 192.875L313.039 121.384C314.804 119.657 315.446 117.063 314.684 114.704ZM269.168 134.115L216.603 185.475L229.068 258.054C229.37 259.817 228.65 261.593 227.216 262.642C226.404 263.235 225.441 263.532 224.474 263.532C223.731 263.532 222.985 263.353 222.3 262.994L157.419 228.658L92.5417 263.001C90.9682 263.835 89.0638 263.695 87.6265 262.645C86.1925 261.603 85.4722 259.82 85.774 258.064L98.2388 185.481L45.6703 134.115C44.3985 132.867 43.9378 131.01 44.4894 129.309C45.0377 127.611 46.4976 126.376 48.2561 126.122L120.842 115.6L153.234 49.5149C154.019 47.9149 155.641 46.9014 157.419 46.9014C159.194 46.9014 160.813 47.9149 161.601 49.5149L193.996 115.6L266.583 126.122C268.341 126.373 269.798 127.611 270.349 129.309C270.901 131.007 270.437 132.864 269.168 134.115Z" fill="#90CEA1"/>
</svg>
